<?xml version="1.0" standalone="no"?>
<!DOCTYPE svg PUBLIC "-//W3C//DTD SVG 20010904//EN"
 "http://www.w3.org/TR/2001/REC-SVG-20010904/DTD/svg10.dtd">
<svg version="1.0" xmlns="http://www.w3.org/2000/svg"
 width="250.000000pt" height="250.000000pt" viewBox="0 0 250.000000 250.000000"
 preserveAspectRatio="xMidYMid meet">

<g transform="translate(0.000000,250.000000) scale(0.100000,-0.100000)"
fill="#000000" stroke="none">
<path d="M1090 2365 c-63 -31 -153 -75 -200 -97 -47 -23 -159 -77 -250 -121
-91 -43 -183 -87 -205 -97 -50 -22 -102 -64 -119 -99 -7 -14 -26 -80 -40 -146
-15 -66 -36 -156 -46 -200 -60 -251 -130 -568 -130 -585 0 -47 42 -107 307
-436 328 -409 291 -365 328 -389 29 -19 50 -20 505 -23 l475 -3 45 23 c37 19
91 81 323 368 152 190 286 362 297 382 27 50 25 106 -5 236 -27 112 -58 245
-100 435 -65 285 -78 333 -103 366 -25 34 -42 43 -532 278 -74 36 -178 86
-230 111 -142 68 -174 68 -320 -3z m423 -503 c125 -62 237 -206 237 -305 0
-28 11 -45 63 -99 49 -51 67 -78 81 -123 46 -146 -30 -301 -173 -355 -30 -12
-89 -24 -133 -27 l-78 -6 0 -58 0 -59 54 0 c47 0 57 4 75 26 15 19 33 28 65
31 40 5 48 2 76 -25 39 -40 42 -97 6 -139 -21 -24 -32 -28 -74 -28 -43 0 -53
4 -72 28 -21 26 -25 27 -111 27 l-89 0 0 99 0 98 -80 7 c-44 4 -84 5 -90 1 -5
-3 -10 -45 -10 -93 0 -77 2 -89 21 -100 11 -7 27 -29 35 -48 31 -75 -42 -150
-123 -126 -41 12 -73 53 -73 92 0 28 26 76 45 84 13 5 15 21 13 98 l-3 93 -82
3 -82 3 -3 -103 -3 -103 -97 -3 c-83 -2 -99 -6 -107 -21 -15 -27 -65 -44 -105
-37 -76 14 -103 111 -47 167 20 20 40 29 61 29 37 0 85 -23 93 -45 5 -11 22
-15 67 -15 l61 0 -3 63 -3 62 -85 6 c-101 7 -167 36 -223 98 -62 69 -72 96
-72 196 0 82 3 95 29 140 17 28 40 58 53 68 13 11 23 29 23 44 0 76 58 166
132 204 32 16 55 20 113 18 l72 -3 50 50 c46 46 115 88 188 113 17 6 77 9 135
8 97 -2 111 -5 173 -35z"/>
<path d="M1200 1819 c-30 -12 -73 -35 -95 -51 -38 -28 -99 -96 -108 -121 -3
-9 -14 -7 -41 6 -50 23 -104 21 -156 -6 -55 -29 -80 -75 -80 -144 0 -29 -4
-53 -8 -53 -17 0 -76 -66 -93 -105 -22 -48 -24 -123 -5 -169 19 -47 72 -103
120 -129 40 -21 50 -22 475 -25 396 -3 439 -1 484 15 61 22 132 97 148 156 25
94 -27 204 -125 262 -11 7 -20 32 -26 72 -17 127 -93 227 -210 281 -78 36
-203 41 -280 11z m271 -43 c112 -53 177 -145 186 -262 l6 -70 43 -23 c24 -13
56 -40 71 -60 25 -32 28 -44 28 -113 0 -70 -2 -79 -31 -114 -17 -21 -50 -48
-75 -61 -44 -22 -48 -22 -470 -23 l-425 0 -52 26 c-92 46 -137 134 -113 222
15 55 51 106 91 127 27 14 28 17 23 70 -5 48 -3 58 21 89 45 60 135 72 193 27
34 -28 36 -27 56 14 37 78 131 153 221 176 57 15 169 3 227 -25z"/>
<path d="M700 790 c0 -15 5 -20 18 -18 9 2 17 10 17 18 0 8 -8 16 -17 18 -13
2 -18 -3 -18 -18z"/>
<path d="M1695 800 c-8 -13 3 -30 20 -30 14 0 27 24 18 34 -10 9 -31 7 -38 -4z"/>
<path d="M1202 683 c4 -22 43 -25 43 -3 0 8 -11 16 -23 18 -19 3 -23 0 -20
-15z"/>
</g>
</svg>
