<?xml version="1.0" standalone="no"?>
<!DOCTYPE svg PUBLIC "-//W3C//DTD SVG 20010904//EN"
 "http://www.w3.org/TR/2001/REC-SVG-20010904/DTD/svg10.dtd">
<svg version="1.0" xmlns="http://www.w3.org/2000/svg"
 width="880.000000pt" height="624.000000pt" viewBox="0 0 880.000000 624.000000"
 preserveAspectRatio="xMidYMid meet">

<g transform="translate(0.000000,624.000000) scale(0.100000,-0.100000)"
fill="#000000" stroke="none">
<path d="M3755 5823 c-389 -32 -722 -186 -995 -462 -261 -264 -419 -608 -446
-973 l-7 -96 -90 -54 c-228 -135 -383 -326 -466 -574 -181 -545 138 -1148 692
-1308 145 -42 232 -46 1047 -46 l770 0 0 -374 0 -373 -47 -18 c-154 -58 -282
-181 -339 -327 l-27 -68 -1027 -2 -1027 -3 -37 -29 c-47 -35 -70 -87 -63 -140
7 -52 33 -86 87 -114 l44 -22 1008 0 c952 0 1009 -1 1014 -17 26 -80 83 -173
148 -238 116 -118 252 -175 418 -175 224 0 428 134 524 345 l39 85 1000 0
c648 0 1013 4 1037 10 111 31 142 187 51 257 l-36 28 -1028 3 -1028 2 -11 38
c-49 153 -188 297 -341 353 l-59 22 0 378 0 379 918 0 c887 0 920 1 1002 20
288 69 526 301 606 590 26 92 26 338 0 430 -95 341 -391 585 -739 609 l-89 6
-4 85 c-14 339 -243 619 -574 701 -71 18 -105 21 -216 17 l-133 -5 -17 46
c-130 348 -432 679 -773 851 -243 121 -542 184 -786 163z m325 -319 c301 -52
590 -231 781 -483 69 -92 163 -286 198 -411 36 -123 52 -148 115 -174 51 -22
57 -21 181 25 122 45 296 23 408 -52 139 -92 218 -274 189 -433 -7 -36 -21
-86 -32 -111 -23 -55 -25 -93 -6 -138 33 -77 109 -104 209 -74 136 41 265 30
396 -34 292 -143 381 -512 188 -782 -75 -105 -206 -186 -337 -206 -43 -7 -684
-11 -1906 -11 -1811 0 -1842 0 -1919 20 -264 68 -469 275 -531 537 -23 97 -21
258 5 356 29 112 94 229 171 310 81 87 159 140 269 184 143 58 147 65 154 278
6 172 30 299 83 434 96 242 273 457 494 600 166 107 324 159 570 185 58 6 229
-5 320 -20z m440 -4255 c55 -25 114 -80 143 -134 17 -32 22 -57 22 -125 0 -77
-3 -90 -31 -140 -114 -202 -396 -194 -506 13 -34 64 -32 184 4 253 32 61 94
117 152 138 62 22 162 20 216 -5z"/>
</g>
</svg>
