<svg height='300px' width='300px'  fill="#ffffff" xmlns="http://www.w3.org/2000/svg" data-name="Layer 1" viewBox="0 0 80 80" x="0px" y="0px"><title>cloud network pc mobile system infrastructure omnichannel</title><path d="M44,48H36a4,4,0,0,0-4,4V70a4,4,0,0,0,4,4h8a4,4,0,0,0,4-4V52A4,4,0,0,0,44,48ZM40,70a2,2,0,1,1,2-2A2,2,0,0,1,40,70Z"></path><path d="M71,48H57a5,5,0,0,0-5,5v8a5,5,0,0,0,5,5h5v4H59a2,2,0,0,0,0,4H69a2,2,0,0,0,0-4H66V66h5a5,5,0,0,0,5-5V53A5,5,0,0,0,71,48Z"></path><rect x="4" y="48" width="24" height="19" rx="5"></rect><path d="M25,70H7a2,2,0,0,0,0,4H25a2,2,0,0,0,0-4Z"></path><path d="M26.9,30h25a8.07,8.07,0,0,0,8.17-7.59,8,8,0,0,0-8-8.36h0a.63.63,0,0,1-.61-.38,11.2,11.2,0,0,0-21.72,2,.61.61,0,0,1-.6.52H27.1A7,7,0,0,0,20,23a6.91,6.91,0,0,0,6.9,7Z"></path><path d="M60,37H42V35a2,2,0,0,0-4,0v2H20a6,6,0,0,0-6,6,2,2,0,0,0,4,0,2,2,0,0,1,2-2H38v2a2,2,0,0,0,4,0V41H60a2,2,0,0,1,2,2,2,2,0,0,0,4,0A6,6,0,0,0,60,37Z"></path></svg>