<svg height='300px' width='300px'  fill="#ffffff" xmlns="http://www.w3.org/2000/svg" xmlns:xlink="http://www.w3.org/1999/xlink" version="1.1" x="0px" y="0px" viewBox="0 0 68 68" enable-background="new 0 0 68 68" xml:space="preserve"><g><g><path d="M5.9571881,5.4049954v46.7199707h56.1000366V5.4049954H5.9571881z M55.8772316,45.9549828H12.1172218V11.5849886    h43.7600098V45.9549828z"></path></g><path d="M65.8072281,54.5349998c-0.1900024-0.2600098-0.4899902-0.4100342-0.8099976-0.4100342H2.997227   c-0.3200073,0-0.6199951,0.1500244-0.7999878,0.4100342c-0.1900024,0.25-0.2499999,0.5899658-0.1500244,0.8899536   l1.5200195,4.7600098c0.4599612,1.4400024,1.7899783,2.4100342,3.299988,2.4100342h54.2600098   c1.5199585,0,2.8499756-0.9700317,3.3100014-2.4100342l1.5199585-4.7600098   C66.0472183,55.1249657,65.9972305,54.7849998,65.8072281,54.5349998z M12.567173,59.3575706h-2.2539063v-2h2.2539063V59.3575706z    M17.1990089,59.3575706h-2.2539063v-2h2.2539063V59.3575706z M21.8303566,59.3575706h-2.253418v-2h2.253418V59.3575706z"></path><g><g><path d="M47.8472023,23.7849998c-0.0999756,0.25-0.2999878,0.4499512-0.5499878,0.5499878     c-0.8099976,0.3300171-1.6699829,0.4899902-2.5499878,0.4899902c-1.8099976,0-3.5200195-0.710022-4.8099976-1.9899902     c-1.9400024-1.9400024-2.5300293-4.8300171-1.5-7.3599844c0.0999756-0.25,0.2999878-0.4500122,0.539978-0.5500488     c1.2600098-0.5199585,2.6900024-0.7799683,4.2600098-0.7799683c2.289978,0,4.0800171,0.5499878,4.1599731,0.5800171     c0.3099976,0.0999756,0.5599976,0.3399658,0.6500244,0.6499634     C48.1072121,15.5649691,49.4372292,19.9150047,47.8472023,23.7849998z"></path></g></g><path d="M38.527195,24.2549706c-2.1799927-2.1799927-2.8099976-5.0100098-2.539978-7.289978l-8.6500244,8.6599731   c-0.2299805,0.2300415-0.3299561,0.5499878-0.2799683,0.8599854l0.3300171,2.1500244l-2.7600098-0.6699829   c-0.3400269-0.0800171-0.7000122,0.0199585-0.9400024,0.2600098l-3.1300049,3.1300049   c-0.25,0.25-0.3500366,0.6099854-0.2600098,0.9499512c0.0900269,0.3500366,0.3499756,0.6199951,0.6900024,0.7200317l4.2700195,1.25   l3.2399902,3.2299805l1.25,4.2800293c0.0999756,0.3399658,0.3699951,0.5999756,0.7099609,0.6799927   c0.0800171,0.0299683,0.1700439,0.039978,0.25,0.039978c0.2600098,0,0.5200195-0.1099854,0.710022-0.2999878l3.1199951-3.1199951   c0.25-0.25,0.3500366-0.6099854,0.2700195-0.9500122l-0.6799927-2.7600098l2.1499634,0.3400269   c0.3200073,0.0499878,0.6400146-0.0599976,0.8600464-0.2800293l8.6699829-8.6599731   C43.527195,27.0449486,40.7071877,26.4150047,38.527195,24.2549706z M31.8713722,28.4552269   c-0.390625-0.390625-0.390625-1.0239258,0-1.4140625l3.0424805-3.0419922c0.390625-0.390625,1.0234375-0.390625,1.4140625,0   s0.390625,1.0239258,0,1.4140625l-3.0424805,3.0419922C32.8948212,28.8458424,32.2620087,28.8458633,31.8713722,28.4552269z    M38.7683449,27.8536644l-3.0419922,3.0419922c-0.3906136,0.3906155-1.0234261,0.3906364-1.4140625,0   c-0.390625-0.390625-0.390625-1.0234375,0-1.4140625l3.0419922-3.0419922c0.390625-0.390625,1.0234375-0.390625,1.4140625,0   S39.1589699,27.4630394,38.7683449,27.8536644z"></path><g><path d="M27.5572243,41.4150047c-2.2700195,0.9499512-5.710022,1.3499756-6.5400391,1.4400024    c-0.039978,0-0.0699463,0.0099487-0.0999756,0.0099487c-0.2700195,0-0.5200195-0.1099854-0.710022-0.2999878    c-0.2099609-0.2099609-0.3199463-0.5100098-0.289978-0.8099976c0.0900269-0.8200073,0.4799805-4.2600098,1.4299927-6.539978    l2.8599854,0.8399658l2.5100098,2.5L27.5572243,41.4150047z"></path></g></g></svg>