<?xml version="1.0" standalone="no"?>
<!DOCTYPE svg PUBLIC "-//W3C//DTD SVG 20010904//EN"
 "http://www.w3.org/TR/2001/REC-SVG-20010904/DTD/svg10.dtd">
<svg version="1.0" xmlns="http://www.w3.org/2000/svg"
 width="900.000000pt" height="900.000000pt" viewBox="0 0 900.000000 900.000000"
 preserveAspectRatio="xMidYMid meet">

<g transform="translate(0.000000,900.000000) scale(0.100000,-0.100000)"
fill="#000000" stroke="none">
<path d="M4205 8629 c-749 -56 -1459 -308 -2072 -736 -395 -275 -751 -631
-1026 -1026 -1150 -1650 -953 -3880 468 -5302 455 -455 999 -793 1605 -997
1495 -503 3141 -118 4255 997 1184 1184 1539 2963 901 4514 -60 146 -196 415
-283 558 -506 837 -1298 1473 -2223 1785 -520 175 -1087 247 -1625 207z m456
-1705 c41 -12 66 -28 104 -68 50 -51 58 -70 884 -2059 458 -1104 840 -2029
848 -2055 29 -95 -9 -230 -85 -292 -66 -54 -119 -74 -202 -74 -67 -1 -81 3
-137 34 -35 19 -551 430 -1148 913 l-1086 877 -14 -32 c-7 -18 -168 -421 -357
-895 l-343 -862 -312 -1 -312 0 29 68 c15 37 423 1017 905 2177 482 1161 888
2129 901 2152 30 53 80 91 147 114 65 23 108 23 178 3z"/>
<path d="M4300 5359 l-271 -683 23 -17 c13 -10 374 -294 803 -632 429 -338
781 -614 783 -613 2 3 -1055 2617 -1062 2623 -2 3 -126 -303 -276 -678z"/>
</g>
</svg>
