<svg height='300px' width='300px'  fill="#ffffff" xmlns="http://www.w3.org/2000/svg" xmlns:xlink="http://www.w3.org/1999/xlink" version="1.1" x="0px" y="0px" viewBox="0 0 50 50" enable-background="new 0 0 50 50" xml:space="preserve"><g><path fill-rule="evenodd" clip-rule="evenodd" d="M42.167,32.021H7.833L0,44.357l50-0.001L42.167,32.021z M44.831,41.516l-39.663,0   l4.226-6.654h31.212L44.831,41.516z M25.999,26.78l4.698-3.941l0.273-0.777l0.803,0.232l1.396-1.172l-1.055-0.295l0.134-0.387   l-0.668-0.795l-0.402,0.064l-0.108-1.091l-1.397,1.172l0.089,0.831l-0.812,0.134l-4.699,3.941l-0.146,1.164l0.725,0.862   L25.999,26.78z M19.166,25.125l4.698-3.941l0.273-0.776l0.803,0.232l1.397-1.172l-1.055-0.295l0.134-0.386l-0.668-0.795   l-0.402,0.064l-0.109-1.09l-1.397,1.172l0.089,0.831L22.116,19.1l-4.698,3.941l-0.147,1.163l0.725,0.862L19.166,25.125z    M18.723,18.108l4.698-3.941l0.273-0.777l0.803,0.232l1.397-1.172l-1.055-0.295l0.133-0.387l-0.668-0.795l-0.402,0.064   l-0.109-1.091l-1.396,1.172l0.088,0.831l-0.812,0.134l-4.698,3.941l-0.146,1.164l0.724,0.862L18.723,18.108z M7.833,31.083h34.334   V5.643H7.833V31.083z M39.326,8.484v19.76H10.674V8.484H39.326z M20.03,40.624h9.939l-1.348-2.123h-7.243L20.03,40.624z"></path></g></svg>