<?xml version="1.0" standalone="no"?>
<!DOCTYPE svg PUBLIC "-//W3C//DTD SVG 20010904//EN"
 "http://www.w3.org/TR/2001/REC-SVG-20010904/DTD/svg10.dtd">
<svg version="1.0" xmlns="http://www.w3.org/2000/svg"
 width="798.000000pt" height="482.000000pt" viewBox="0 0 798.000000 482.000000"
 preserveAspectRatio="xMidYMid meet">

<g transform="translate(0.000000,482.000000) scale(0.100000,-0.100000)"
fill="#000000" stroke="none">
<path d="M3737 4605 c-95 -15 -271 -72 -352 -112 -99 -50 -261 -147 -316 -189
-61 -47 -108 -110 -135 -180 -9 -24 -20 -44 -25 -44 -5 0 -24 -13 -42 -30 -45
-39 -84 -129 -99 -226 l-12 -79 -62 -58 c-237 -219 -412 -535 -486 -877 -30
-142 -33 -484 -5 -625 68 -340 211 -615 448 -860 l89 -92 8 -143 c8 -142 8
-143 38 -166 16 -13 33 -24 37 -24 5 0 76 -31 159 -70 180 -84 259 -109 353
-115 l70 -3 23 -74 c82 -261 114 -357 125 -372 38 -51 364 -80 622 -56 136 13
176 23 215 56 28 24 30 31 30 89 l0 64 53 15 c69 20 103 47 111 88 4 21 -4 84
-20 168 -15 74 -25 146 -21 160 4 16 18 30 37 37 22 8 32 20 36 42 6 27 13 33
57 46 28 8 77 15 109 15 52 0 62 -3 83 -27 l23 -28 139 0 c192 0 228 20 275
153 44 122 33 225 -43 423 -23 59 -40 87 -68 111 l-38 32 47 95 c60 120 100
234 136 387 26 112 28 133 28 344 0 197 -2 238 -22 330 -69 318 -211 588 -432
825 l-47 50 -12 108 c-23 212 -83 359 -201 494 -161 186 -296 269 -510 313
-90 19 -304 21 -403 5z m343 -101 c159 -30 312 -97 393 -172 43 -41 152 -167
169 -197 4 -6 -16 -10 -52 -10 -48 0 -63 -4 -83 -23 -23 -22 -44 -69 -34 -78
2 -2 18 3 36 12 61 30 171 -8 225 -79 52 -68 61 -129 61 -407 0 -231 -2 -265
-23 -359 -42 -188 -99 -320 -205 -475 -36 -52 -80 -102 -107 -122 -68 -50
-183 -103 -267 -125 -138 -35 -230 -22 -373 52 -99 51 -180 126 -281 256 -70
93 -81 103 -75 74 11 -57 45 -116 122 -204 64 -74 139 -142 189 -172 12 -7 1
-10 -43 -10 -47 0 -67 -5 -92 -23 -31 -23 -33 -23 -123 -12 -174 23 -239 64
-306 190 -46 88 -96 227 -106 294 -7 43 -5 51 23 85 29 37 36 52 33 79 -1 18
-37 7 -78 -24 -93 -70 -221 17 -274 186 -46 147 29 277 167 288 52 4 55 3 93
-35 25 -25 43 -55 51 -83 19 -75 15 -72 67 -65 57 8 93 29 93 53 0 9 -9 54
-20 100 -25 104 -25 172 0 290 29 138 34 209 17 270 -14 52 -14 53 15 99 79
123 335 306 488 347 73 19 198 20 300 0z m-585 -82 c0 -14 -21 -28 -105 -68
-88 -43 -183 -109 -235 -165 -34 -36 -64 -57 -99 -70 -28 -9 -52 -16 -54 -14
-2 2 10 24 27 48 65 95 197 190 355 254 83 34 111 38 111 15z m-280 -363 c9
-26 8 -27 -59 -44 -187 -49 -290 -186 -273 -366 4 -45 2 -59 -10 -63 -13 -5
-14 12 -11 131 3 117 7 144 25 179 41 76 129 140 236 169 72 19 85 18 92 -6z
m185 -1659 c11 -6 58 -14 105 -19 47 -5 88 -11 92 -14 3 -3 -1 -24 -8 -45
l-14 -40 -57 18 c-80 25 -148 66 -148 90 0 23 4 24 30 10z m905 2 c-74 -64
-105 -82 -142 -82 -44 0 -111 21 -145 44 -20 14 -17 15 43 11 44 -4 88 0 144
14 91 22 113 25 100 13z m1 -337 l67 -36 -2 -97 c-2 -110 -17 -247 -33 -307
l-11 -40 -36 76 c-20 41 -55 118 -79 171 -24 53 -59 120 -79 149 -41 64 -37
77 30 94 26 7 50 15 54 18 11 11 20 8 89 -28z m250 -43 c11 -6 28 -19 38 -31
18 -20 17 -22 -44 -128 -76 -130 -167 -270 -181 -279 -8 -4 -8 -1 -1 12 15 28
41 204 50 329 l7 110 30 6 c31 5 68 -1 101 -19z m-473 -92 c38 -58 178 -351
171 -359 -10 -11 -263 94 -371 155 l-63 35 16 37 c19 46 72 102 144 152 30 22
57 39 60 39 3 1 22 -26 43 -59z m1035 -360 c22 -13 42 -39 58 -73 25 -56 74
-256 74 -304 0 -86 -60 -171 -135 -192 -49 -13 -192 -15 -200 -2 -3 5 30 17
72 26 107 23 114 26 78 37 -16 5 -89 6 -161 2 l-131 -6 -7 83 c-7 83 -31 245
-42 285 -4 17 4 26 53 51 32 17 87 40 123 52 36 12 81 30 100 41 45 25 77 25
118 0z m-900 -149 c23 -5 45 -11 48 -13 6 -7 14 -132 55 -823 6 -99 12 -196
13 -215 l1 -35 -85 -18 c-161 -34 -476 -21 -615 25 -34 12 -39 19 -56 73 -77
247 -150 605 -184 906 l-6 57 63 11 c80 13 286 39 358 45 80 6 358 -3 408 -13z
m444 -27 c27 -63 50 -198 46 -280 l-3 -67 -43 -15 c-24 -8 -45 -12 -48 -9 -4
3 -64 393 -64 413 0 2 21 4 46 4 44 0 46 -1 66 -46z m-184 -651 c38 -209 38
-201 5 -214 -15 -6 -46 -14 -69 -16 l-41 -5 -6 62 c-4 35 -7 111 -7 171 0 118
-3 114 71 118 24 1 26 -2 47 -116z"/>
<path d="M3737 4086 c-88 -32 -169 -117 -183 -192 -13 -69 15 -85 45 -26 26
50 99 116 146 132 21 7 56 10 80 7 33 -5 44 -3 49 9 9 24 -12 54 -49 70 -41
17 -40 17 -88 0z"/>
<path d="M4650 3789 c0 -19 11 -65 25 -103 13 -39 22 -72 20 -74 -3 -3 -28 -7
-57 -9 -104 -8 -117 -18 -80 -64 24 -29 93 -29 149 -1 71 37 71 38 8 164 -31
62 -59 115 -61 117 -2 2 -4 -11 -4 -30z"/>
<path d="M3945 3763 c4 -21 22 -72 41 -113 33 -71 34 -75 17 -88 -13 -10 -34
-11 -78 -6 -99 12 -100 12 -103 -18 -4 -35 28 -57 96 -65 67 -8 114 2 146 32
39 36 35 76 -13 128 -22 24 -52 71 -67 105 -30 70 -48 81 -39 25z"/>
<path d="M4302 3696 c6 -77 55 -169 151 -288 45 -56 88 -109 96 -120 17 -23
17 -76 -1 -94 -25 -25 -203 -96 -254 -101 -65 -7 -90 7 -105 57 -13 43 -23 50
-33 24 -21 -55 7 -128 54 -138 77 -15 228 25 336 89 71 43 79 53 94 116 l12
49 -72 77 c-105 114 -189 228 -227 311 -41 87 -57 93 -51 18z"/>
<path d="M2905 3425 c-14 -13 -25 -31 -25 -40 0 -14 3 -14 25 1 29 19 28 21
25 -68 -1 -37 4 -84 11 -105 l13 -38 7 78 c11 130 52 147 107 44 l27 -52 3 44
c4 56 -12 93 -55 131 -44 39 -102 42 -138 5z"/>
<path d="M4590 3044 c-47 -24 -101 -47 -121 -50 -58 -10 -63 -17 -60 -86 1
-24 5 -28 29 -28 43 0 123 43 168 90 42 43 92 120 77 119 -4 0 -46 -20 -93
-45z"/>
<path d="M3948 3013 c44 -81 204 -142 375 -143 l47 0 0 43 c0 23 -4 47 -8 53
-4 7 -62 13 -152 17 -131 5 -184 14 -254 42 -16 7 -17 5 -8 -12z"/>
<path d="M3880 2919 c0 -6 17 -31 38 -56 129 -155 142 -162 283 -163 110 0
191 20 214 53 l15 22 -157 6 c-208 9 -281 35 -339 124 -16 25 -54 35 -54 14z"/>
<path d="M4240 1985 c-10 -12 -10 -18 0 -30 7 -8 18 -15 25 -15 7 0 18 7 25
15 10 12 10 18 0 30 -7 8 -18 15 -25 15 -7 0 -18 -7 -25 -15z"/>
<path d="M4274 1836 c-10 -26 4 -48 28 -44 17 2 23 10 23 28 0 18 -6 26 -23
28 -13 2 -25 -3 -28 -12z"/>
<path d="M4914 1439 c-28 -10 -61 -30 -74 -44 l-23 -25 24 0 c13 0 60 21 104
45 68 38 76 45 50 44 -16 0 -53 -9 -81 -20z"/>
<path d="M4880 1327 c-24 -11 -24 -11 15 -15 61 -6 194 9 170 19 -30 12 -156
9 -185 -4z"/>
<path d="M4878 1223 c-48 -12 -6 -21 105 -21 115 0 120 0 82 13 -38 13 -151
18 -187 8z"/>
</g>
</svg>
