<?xml version="1.0" standalone="no"?>
<!DOCTYPE svg PUBLIC "-//W3C//DTD SVG 20010904//EN"
 "http://www.w3.org/TR/2001/REC-SVG-20010904/DTD/svg10.dtd">
<svg version="1.0" xmlns="http://www.w3.org/2000/svg"
 width="1054.000000pt" height="500.000000pt" viewBox="0 0 1054.000000 500.000000"
 preserveAspectRatio="xMidYMid meet">

<g transform="translate(0.000000,500.000000) scale(0.100000,-0.100000)"
fill="#000000" stroke="none">
<path d="M5547 4150 c-74 -13 -175 -48 -252 -87 -180 -90 -253 -147 -290 -225
-12 -27 -35 -58 -50 -70 -36 -28 -75 -113 -75 -163 0 -37 -6 -47 -66 -105
-154 -153 -259 -337 -315 -555 -20 -77 -23 -115 -23 -265 0 -149 3 -188 22
-261 57 -219 144 -377 293 -534 l66 -70 7 -93 c7 -103 15 -128 48 -137 13 -4
75 -31 138 -60 80 -37 140 -58 195 -67 l79 -13 36 -120 c58 -186 60 -190 116
-205 68 -17 291 -24 398 -12 113 13 140 30 144 95 3 45 4 46 53 62 57 19 65
37 55 118 -3 29 -9 81 -12 117 -6 64 -6 66 20 78 14 6 26 18 26 26 0 21 27 34
89 42 46 6 55 4 76 -16 21 -20 35 -23 117 -23 114 -1 147 13 178 78 34 69 37
148 10 236 -27 89 -44 125 -77 160 l-24 27 34 68 c206 411 133 937 -177 1271
-53 58 -55 61 -66 144 -14 106 -52 218 -92 278 -51 73 -168 183 -233 218 -33
17 -87 39 -120 47 -71 20 -260 29 -328 16z m338 -94 c108 -37 167 -77 236
-160 l58 -71 -39 -5 c-42 -5 -80 -31 -80 -53 0 -10 13 -13 53 -9 42 3 58 0 86
-20 51 -34 69 -73 81 -173 32 -284 -18 -520 -151 -716 -49 -73 -87 -104 -179
-148 -70 -34 -82 -36 -170 -36 -84 0 -102 3 -153 28 -69 34 -163 119 -224 201
-24 32 -43 51 -43 42 0 -37 47 -105 125 -183 75 -75 80 -83 56 -83 -14 0 -39
-7 -56 -16 -38 -20 -137 -13 -199 14 -64 29 -112 100 -155 231 -27 81 -27 123
-1 146 19 17 28 55 13 55 -5 0 -23 -9 -41 -20 -48 -29 -85 -26 -128 13 -73 63
-99 179 -56 249 25 41 58 58 112 58 46 0 75 -25 92 -82 10 -33 15 -38 40 -38
40 0 68 17 68 41 0 11 -7 49 -16 84 -16 61 -15 70 5 187 18 101 20 132 11 171
-10 45 -9 50 19 91 48 70 179 166 291 213 78 33 229 28 345 -11z m-505 -34 c0
-4 -37 -27 -82 -52 -45 -25 -107 -69 -139 -98 -34 -31 -70 -55 -90 -59 l-33
-6 22 30 c49 69 141 134 250 179 52 21 72 23 72 6z m-190 -257 c0 -8 -22 -20
-53 -29 -69 -20 -129 -64 -152 -112 -11 -22 -21 -69 -23 -106 -6 -96 -22 -85
-22 15 0 105 21 153 83 196 43 30 143 64 160 54 4 -2 7 -10 7 -18z m198 -1155
c51 0 66 -12 58 -44 -6 -23 -10 -25 -34 -20 -57 14 -127 59 -116 75 2 5 16 4
30 -1 14 -6 42 -10 62 -10z m522 -10 c-39 -34 -92 -40 -140 -15 -17 9 -30 17
-30 18 0 1 17 1 38 -1 20 -2 64 3 97 12 33 8 62 15 65 15 3 0 -11 -13 -30 -29z
m38 -212 c42 -23 42 -23 42 -78 0 -69 -18 -219 -29 -238 -5 -10 -23 20 -55 94
-26 60 -61 131 -78 157 -17 26 -27 51 -24 55 10 9 67 30 86 31 8 1 34 -9 58
-21z m179 -42 l27 -24 -62 -103 c-35 -57 -71 -115 -82 -129 l-19 -25 9 40 c5
22 11 72 15 110 13 159 12 155 50 155 21 0 44 -9 62 -24z m-329 -68 c37 -62
106 -218 99 -225 -11 -11 -268 105 -282 127 -11 17 32 76 83 114 26 19 52 36
57 36 6 0 25 -24 43 -52z m714 -238 c31 -24 50 -70 73 -175 13 -64 15 -89 6
-121 -19 -69 -75 -103 -173 -104 -59 0 -54 17 9 30 87 18 44 34 -68 25 l-88
-6 -6 48 c-3 26 -12 86 -19 133 -17 101 -14 106 87 140 34 11 73 27 87 35 35
20 63 18 92 -5z m-645 -96 c24 -3 45 -9 48 -14 6 -9 17 -180 35 -510 5 -102
12 -195 16 -206 5 -19 -1 -23 -48 -35 -101 -26 -404 -13 -457 20 -40 25 -174
682 -145 711 10 10 225 38 319 42 69 3 171 0 232 -8z m327 -28 c25 -51 36
-224 15 -237 -25 -15 -59 -10 -60 9 0 9 -8 71 -18 137 -19 126 -17 138 24 133
12 -2 28 -19 39 -42z m-129 -454 c23 -118 20 -135 -27 -146 -21 -5 -41 -6 -45
-2 -5 4 -8 58 -8 119 0 110 0 111 25 117 14 4 28 5 31 4 4 -2 14 -43 24 -92z"/>
<path d="M5522 3779 c-51 -26 -91 -74 -99 -122 -8 -52 12 -53 42 -1 31 54 98
90 146 80 25 -5 29 -3 29 18 0 15 -9 27 -25 34 -35 16 -43 15 -93 -9z"/>
<path d="M6180 3583 c1 -10 7 -36 15 -58 21 -59 20 -62 -35 -70 -51 -7 -55
-11 -44 -39 13 -35 144 -8 144 30 0 16 -67 154 -75 154 -3 0 -5 -8 -5 -17z"/>
<path d="M5695 3558 c4 -18 16 -50 27 -71 30 -59 20 -70 -52 -62 -55 6 -60 5
-60 -13 0 -31 26 -45 86 -46 50 0 59 3 80 27 30 35 30 39 -5 79 -15 18 -38 52
-50 76 -26 50 -35 54 -26 10z"/>
<path d="M5940 3527 c0 -47 49 -139 120 -226 76 -94 77 -114 5 -153 -110 -59
-191 -62 -202 -8 -3 17 -9 30 -14 30 -14 0 -10 -74 5 -95 22 -30 122 -15 223
35 74 37 83 44 93 78 5 20 10 41 10 45 0 5 -27 39 -61 75 -70 77 -144 185
-154 225 -10 38 -25 34 -25 -6z"/>
<path d="M4972 3338 c-17 -17 -15 -39 3 -32 12 5 15 -5 15 -52 0 -33 5 -66 10
-74 7 -11 10 -3 10 28 0 83 38 109 67 47 18 -39 33 -46 33 -16 0 31 -17 67
-41 90 -25 23 -78 28 -97 9z"/>
<path d="M6151 3075 c-23 -14 -64 -31 -90 -38 -41 -12 -46 -17 -49 -45 -3 -29
0 -32 23 -32 56 0 114 41 160 113 21 33 12 34 -44 2z"/>
<path d="M5700 3042 c0 -35 112 -83 212 -90 l79 -5 -3 34 -3 34 -105 7 c-58 5
-118 12 -134 18 -35 12 -46 13 -46 2z"/>
<path d="M5650 2981 c0 -18 92 -121 120 -136 63 -33 250 -11 250 29 0 12 -17
15 -95 15 -123 0 -170 13 -218 62 -39 38 -57 48 -57 30z"/>
<path d="M5896 2331 c-3 -5 0 -14 8 -20 10 -8 16 -8 25 2 6 8 8 17 4 20 -9 10
-31 9 -37 -2z"/>
<path d="M5920 2220 c0 -15 5 -20 18 -18 9 2 17 10 17 18 0 8 -8 16 -17 18
-13 2 -18 -3 -18 -18z"/>
<path d="M6375 1959 c-16 -5 -41 -18 -55 -29 -51 -40 34 -15 100 29 13 10 13
11 0 10 -8 0 -28 -5 -45 -10z"/>
<path d="M6351 1881 c-21 -13 -1 -18 64 -13 43 3 54 7 40 13 -27 10 -87 11
-104 0z"/>
<path d="M6345 1800 c-4 -6 21 -10 67 -9 50 0 67 3 53 9 -28 12 -113 12 -120
0z"/>
</g>
</svg>
