<?xml version="1.0" standalone="no"?>
<!DOCTYPE svg PUBLIC "-//W3C//DTD SVG 20010904//EN"
 "http://www.w3.org/TR/2001/REC-SVG-20010904/DTD/svg10.dtd">
<svg version="1.0" xmlns="http://www.w3.org/2000/svg"
 width="774.000000pt" height="763.000000pt" viewBox="0 0 774.000000 763.000000"
 preserveAspectRatio="xMidYMid meet">

<g transform="translate(0.000000,763.000000) scale(0.100000,-0.100000)"
fill="#000000" stroke="none">
<path d="M3868 7348 c-124 -156 -466 -586 -761 -955 -295 -370 -535 -673 -533
-673 12 0 4020 740 4023 743 1 2 -540 265 -1205 585 -1055 509 -1213 582
-1253 582 l-46 0 -225 -282z"/>
<path d="M1970 6879 c-706 -341 -1289 -624 -1294 -629 -9 -9 -647 -2789 -643
-2801 2 -5 841 1044 2919 3653 175 219 314 398 310 397 -4 0 -585 -279 -1292
-620z"/>
<path d="M4632 5526 c-1349 -249 -2454 -455 -2456 -457 -4 -3 78 -2123 108
-2829 3 -74 18 -423 32 -775 14 -352 26 -641 28 -642 1 -2 699 887 1551 1974
1223 1560 1558 1982 1593 2004 86 55 188 58 280 9 21 -10 469 -366 996 -789
528 -424 961 -769 963 -767 2 2 -580 2571 -614 2704 -3 12 -10 22 -17 21 -6 0
-1115 -204 -2464 -453z"/>
<path d="M845 3556 c-429 -538 -779 -980 -779 -983 5 -17 1720 -2157 1722
-2148 2 9 -154 3994 -160 4075 -3 33 -46 -19 -783 -944z"/>
<path d="M4775 3009 c-495 -632 -906 -1158 -913 -1168 -11 -16 74 -88 958
-797 534 -428 975 -780 979 -782 9 -3 1851 2302 1851 2317 0 10 -1956 1581
-1967 1580 -5 0 -413 -518 -908 -1150z"/>
<path d="M3217 1018 c-157 -200 -392 -500 -524 -668 l-239 -305 678 -3 c373
-1 983 -1 1356 0 l678 3 -779 625 c-428 344 -803 644 -832 668 l-54 43 -284
-363z"/>
</g>
</svg>
