<?xml version="1.0" standalone="no"?>
<!DOCTYPE svg PUBLIC "-//W3C//DTD SVG 20010904//EN"
 "http://www.w3.org/TR/2001/REC-SVG-20010904/DTD/svg10.dtd">
<svg version="1.0" xmlns="http://www.w3.org/2000/svg"
 width="500.000000pt" height="500.000000pt" viewBox="0 0 500.000000 500.000000"
 preserveAspectRatio="xMidYMid meet">

<g transform="translate(0.000000,500.000000) scale(0.100000,-0.100000)"
fill="#000000" stroke="none">
<path d="M2388 4752 c-26 -9 -401 -188 -834 -397 -844 -407 -852 -412 -907
-512 -20 -38 -72 -251 -227 -930 -110 -484 -200 -898 -200 -920 0 -51 26 -137
55 -182 12 -20 270 -346 572 -726 581 -730 588 -738 696 -770 76 -23 1838 -23
1914 0 108 32 115 39 700 775 304 382 562 710 573 728 33 55 53 140 47 201 -3
31 -94 443 -202 916 -150 658 -202 871 -223 908 -54 100 -63 105 -903 511
-431 209 -806 388 -834 397 -63 23 -165 23 -227 1z m938 -562 c433 -209 798
-387 812 -396 13 -9 32 -34 42 -57 10 -23 104 -423 210 -889 145 -641 191
-856 186 -883 -9 -46 -1099 -1421 -1148 -1447 -30 -17 -94 -18 -928 -18 -834
0 -898 1 -928 18 -49 26 -1139 1401 -1148 1447 -8 44 366 1704 399 1775 21 43
29 49 162 115 77 39 259 128 405 198 146 70 445 215 665 322 317 153 409 194
442 194 36 1 162 -57 829 -379z"/>
<path d="M2432 4125 c-42 -35 -47 -70 -23 -150 12 -37 24 -104 27 -149 6 -78
5 -86 -25 -146 -17 -36 -31 -70 -31 -76 0 -6 -24 -14 -52 -17 -192 -23 -416
-122 -588 -261 l-68 -55 -38 14 c-22 8 -55 16 -75 20 -44 7 -141 92 -192 167
-45 69 -67 88 -108 94 -42 6 -95 -24 -109 -62 -27 -71 6 -127 93 -159 27 -9
83 -40 124 -68 68 -45 79 -57 104 -113 16 -34 33 -65 39 -69 6 -4 -1 -23 -19
-48 -42 -62 -98 -177 -126 -261 -43 -129 -58 -214 -61 -365 -3 -127 -6 -146
-21 -154 -10 -6 -34 -24 -54 -42 -45 -40 -125 -57 -257 -54 -104 3 -131 -5
-158 -46 -19 -29 -21 -83 -5 -114 14 -26 61 -51 96 -51 15 0 54 15 88 34 84
46 198 80 245 72 118 -19 112 -16 137 -81 34 -91 87 -192 146 -275 63 -91 202
-229 290 -289 l65 -45 1 -74 c2 -102 -31 -175 -137 -297 -32 -37 -40 -54 -40
-86 0 -72 54 -118 124 -105 40 8 86 56 86 89 1 45 30 159 56 218 20 45 39 68
70 90 24 16 47 37 52 45 8 14 16 14 77 -5 211 -66 458 -66 668 -1 l68 21 63
-56 c54 -47 68 -66 90 -125 14 -38 28 -93 31 -122 14 -116 45 -158 117 -158
32 0 47 7 74 34 55 55 47 100 -31 188 -23 26 -59 79 -80 119 -33 63 -37 78
-33 123 3 28 2 62 -1 76 -6 22 1 30 61 73 187 131 336 321 425 542 30 74 35
80 65 86 18 3 46 11 61 18 59 23 167 2 280 -55 37 -19 79 -34 93 -34 59 0 103
45 104 105 0 82 -57 120 -160 105 -73 -10 -208 3 -250 25 -14 7 -33 21 -41 31
-8 9 -26 22 -41 29 l-27 11 -5 144 c-5 154 -25 264 -69 380 -28 75 -81 183
-109 222 l-19 28 35 74 c43 89 94 133 227 195 91 42 109 63 109 125 0 42 -30
81 -74 96 -49 16 -97 -7 -132 -62 -72 -115 -162 -193 -233 -203 -27 -4 -58
-13 -67 -20 -16 -11 -26 -7 -79 39 -166 144 -378 245 -584 278 -48 7 -81 17
-81 24 0 7 -14 38 -31 70 -30 57 -31 63 -25 145 3 47 15 116 26 153 13 42 19
79 15 96 -9 43 -58 80 -105 80 -27 0 -48 -8 -68 -25z m-101 -977 c-12 -128
-25 -245 -29 -259 -7 -27 -8 -26 -229 121 l-222 148 22 19 c64 58 209 136 318
172 64 21 150 40 158 35 2 -2 -6 -108 -18 -236z m479 201 c113 -38 246 -111
326 -179 l32 -28 -210 -141 c-116 -77 -219 -141 -230 -141 -10 0 -22 10 -27
23 -7 18 -52 451 -51 493 0 14 69 2 160 -27z m-962 -602 c147 -147 183 -189
180 -207 -3 -20 -30 -31 -258 -106 -140 -46 -259 -84 -264 -84 -15 0 2 198 24
290 20 83 111 290 127 290 5 0 91 -83 191 -183z m1601 -42 c47 -143 70 -364
36 -352 -39 15 -255 80 -375 112 -74 20 -141 38 -148 40 -7 3 76 94 190 209
l203 204 32 -62 c18 -33 46 -101 62 -151z m-833 -142 c19 -20 46 -54 60 -75
25 -35 26 -40 15 -85 -32 -130 -26 -120 -101 -158 -38 -19 -78 -35 -88 -35
-25 0 -145 55 -159 72 -6 7 -18 46 -28 86 -20 85 -19 91 49 175 l47 57 86 0
85 0 34 -37z m-499 -460 c3 -9 2 -32 -4 -52 -17 -56 -164 -475 -168 -479 -7
-8 -133 97 -181 151 -26 29 -64 78 -86 109 -45 67 -120 217 -113 228 3 4 44
11 92 15 49 3 151 15 228 25 188 24 224 24 232 3z m1105 -20 c250 -20 231 -6
170 -128 -45 -90 -98 -168 -161 -237 -51 -56 -158 -144 -166 -137 -7 8 -157
443 -162 472 -8 42 13 60 62 54 22 -4 138 -14 257 -24z m-634 -273 c30 -52 90
-155 133 -228 43 -72 79 -134 79 -136 0 -2 -37 -12 -82 -22 -113 -25 -323 -26
-430 -1 -43 10 -78 20 -78 21 0 6 259 441 271 454 26 30 52 8 107 -88z"/>
</g>
</svg>
