<?xml version="1.0" standalone="no"?>
<!DOCTYPE svg PUBLIC "-//W3C//DTD SVG 20010904//EN"
 "http://www.w3.org/TR/2001/REC-SVG-20010904/DTD/svg10.dtd">
<svg version="1.0" xmlns="http://www.w3.org/2000/svg"
 width="1800.000000pt" height="1800.000000pt" viewBox="0 0 1800.000000 1800.000000"
 preserveAspectRatio="xMidYMid meet">

<g transform="translate(0.000000,1800.000000) scale(0.100000,-0.100000)"
fill="#000000" stroke="none">
<path d="M8646 17699 c-2860 -112 -5508 -1596 -7080 -3969 -753 -1135 -1217
-2409 -1365 -3745 -62 -551 -67 -1170 -16 -1735 160 -1753 839 -3412 1954
-4774 360 -440 843 -920 1281 -1272 1428 -1150 3128 -1807 4980 -1924 364 -23
975 -12 1380 26 1525 141 2986 663 4235 1512 671 456 1304 1031 1826 1658
1050 1260 1717 2799 1923 4434 51 402 61 571 61 1085 0 489 -5 594 -46 960
-321 2886 -2126 5455 -4774 6795 -1027 520 -2102 825 -3255 925 -365 31 -723
39 -1104 24z m304 -1116 c-63 -197 -87 -400 -70 -595 26 -299 104 -549 335
-1063 454 -1013 666 -1893 745 -3093 12 -179 23 -261 40 -292 26 -48 19 -88
141 810 170 1257 289 1762 525 2225 106 210 292 474 414 590 l43 40 -8 -30
c-22 -94 -47 -312 -52 -460 -22 -622 164 -1218 669 -2145 211 -388 326 -639
426 -931 96 -282 161 -558 199 -854 22 -175 25 -700 5 -865 -49 -397 -151
-788 -283 -1088 -59 -134 -122 -254 -328 -627 -61 -110 -107 -201 -103 -203 4
-1 630 119 1392 267 761 149 1386 268 1389 266 2 -3 -13 -53 -34 -112 -248
-707 -601 -1296 -1123 -1876 -115 -128 -146 -149 -237 -166 -83 -16 -7997 -16
-8080 0 -124 23 -150 45 -371 319 -226 281 -422 559 -582 825 -110 184 -286
543 -357 728 -50 131 -56 155 -53 210 l3 63 1300 -272 c715 -150 1306 -272
1313 -271 7 1 -22 49 -69 112 -425 572 -664 1116 -730 1660 -17 143 -15 454 5
610 50 395 121 712 332 1487 106 388 120 433 276 843 156 411 224 622 282 885
76 343 91 694 42 976 -8 43 -13 80 -12 81 5 6 153 -120 234 -200 284 -280 459
-634 566 -1147 37 -175 78 -445 122 -805 14 -121 30 -224 34 -228 4 -4 41 44
83 108 348 531 520 1223 612 2460 28 389 83 679 169 904 53 138 167 352 244
460 85 120 207 249 291 309 50 36 277 172 287 172 1 0 -11 -39 -26 -87z m4160
-11723 l0 -710 -4125 0 -4125 0 0 710 0 710 4125 0 4125 0 0 -710z m-1650
-1582 c0 -148 -19 -268 -66 -408 -217 -652 -891 -1205 -1704 -1399 -227 -55
-336 -66 -645 -65 -291 0 -413 11 -640 55 -696 137 -1283 495 -1610 984 -184
274 -295 613 -295 897 l0 58 2480 0 2480 0 0 -122z"/>
</g>
</svg>
