<svg version="1.1" id="Layer_1" xmlns="http://www.w3.org/2000/svg" xmlns:xlink="http://www.w3.org/1999/xlink" x="0px" y="0px"
	 width="100%" viewBox="0 0 225 225" enable-background="new 0 0 225 225" xml:space="preserve">
<path fill="#000000" opacity="1.000000" stroke="none" 
	d="
M131.000000,226.000000 
	C87.333336,226.000000 44.166672,226.000000 1.000006,226.000000 
	C1.000004,151.000000 1.000004,76.000015 1.000002,1.000016 
	C75.999992,1.000011 150.999985,1.000011 225.999969,1.000005 
	C225.999985,75.999985 225.999985,150.999969 226.000000,225.999969 
	C194.500000,226.000000 163.000000,226.000000 131.000000,226.000000 
M209.004608,128.371155 
	C208.958481,118.156174 210.124268,107.755264 208.592087,97.768272 
	C206.075378,81.364120 199.332199,66.499947 188.364456,53.578022 
	C179.101639,42.664845 168.744690,33.115955 155.882828,27.006739 
	C136.611816,17.853251 116.161766,15.307803 95.069695,19.013903 
	C71.381554,23.176165 52.221287,35.099136 37.672920,54.018055 
	C21.623281,74.889244 14.730416,98.464912 17.900339,124.953239 
	C20.151886,143.767471 26.659914,160.794510 38.809177,175.118866 
	C56.171352,195.589371 78.525871,207.867371 105.462944,209.797180 
	C137.830399,212.116013 165.462860,201.150040 186.740601,176.366821 
	C192.743469,169.374985 197.467331,161.005920 201.439072,152.633438 
	C204.916977,145.301926 206.516571,137.079376 209.004608,128.371155 
z"/>
<path fill="#727174" opacity="1.000000" stroke="none" 
	d="
M208.975250,128.810791 
	C206.516571,137.079376 204.916977,145.301926 201.439072,152.633438 
	C197.467331,161.005920 192.743469,169.374985 186.740601,176.366821 
	C165.462860,201.150040 137.830399,212.116013 105.462944,209.797180 
	C78.525871,207.867371 56.171352,195.589371 38.809177,175.118866 
	C26.659914,160.794510 20.151886,143.767471 17.900339,124.953239 
	C14.730416,98.464912 21.623281,74.889244 37.672920,54.018055 
	C52.221287,35.099136 71.381554,23.176165 95.069695,19.013903 
	C116.161766,15.307803 136.611816,17.853251 155.882828,27.006739 
	C168.744690,33.115955 179.101639,42.664845 188.364456,53.578022 
	C199.332199,66.499947 206.075378,81.364120 208.592087,97.768272 
	C210.124268,107.755264 208.958481,118.156174 208.975250,128.810791 
M113.510551,197.001587 
	C118.286209,196.646347 123.155609,196.769073 127.821503,195.854095 
	C149.423187,191.618118 167.740967,181.317200 180.782547,163.503815 
	C197.675156,140.430298 202.734177,114.619255 193.430649,87.217926 
	C187.853317,70.791161 178.294281,56.458878 163.775146,46.331684 
	C144.105408,32.611927 122.625031,25.728895 98.428169,31.115568 
	C77.372879,35.802868 59.796803,46.005322 46.793507,63.599762 
	C32.721096,82.640816 27.612152,104.125702 31.347668,127.107719 
	C34.655178,147.456528 43.800346,165.182526 60.657669,178.224442 
	C75.995461,190.090759 93.040871,196.921295 113.510551,197.001587 
z"/>
<path fill="#000000" opacity="1.000000" stroke="none" 
	d="
M113.047073,197.004730 
	C93.040871,196.921295 75.995461,190.090759 60.657669,178.224442 
	C43.800346,165.182526 34.655178,147.456528 31.347668,127.107719 
	C27.612152,104.125702 32.721096,82.640816 46.793507,63.599762 
	C59.796803,46.005322 77.372879,35.802868 98.428169,31.115568 
	C122.625031,25.728895 144.105408,32.611927 163.775146,46.331684 
	C178.294281,56.458878 187.853317,70.791161 193.430649,87.217926 
	C202.734177,114.619255 197.675156,140.430298 180.782547,163.503815 
	C167.740967,181.317200 149.423187,191.618118 127.821503,195.854095 
	C123.155609,196.769073 118.286209,196.646347 113.047073,197.004730 
M86.200020,177.384766 
	C85.370850,180.547516 87.499962,180.010849 89.321831,179.896790 
	C93.886719,179.611008 98.450935,179.144257 103.018509,179.104416 
	C115.603661,178.994675 128.190384,179.066483 141.092560,179.066483 
	C140.427658,178.359467 139.727844,177.615311 138.980698,176.145599 
	C132.948273,165.265289 127.064751,154.298691 120.827873,143.536865 
	C117.050758,137.019394 109.102295,137.455078 105.444496,144.045944 
	C103.638245,147.300583 101.635384,150.445770 99.812141,153.691406 
	C95.458504,161.441498 91.158699,169.221848 86.200020,177.384766 
M160.491547,128.999771 
	C154.859070,128.086914 149.249817,126.710014 143.585846,126.426476 
	C139.891174,126.241516 134.996429,126.497574 132.737900,128.704132 
	C130.974564,130.426895 131.646591,135.694839 132.631516,138.967590 
	C134.961136,146.708496 138.065552,154.220871 140.965942,161.783737 
	C142.891800,166.805466 145.006348,171.754837 147.119431,176.940308 
	C157.960953,163.506714 168.418686,150.470154 178.977341,137.515839 
	C181.949890,133.868866 181.923965,132.889969 177.259399,131.782013 
	C172.044891,130.543427 166.688202,129.903488 160.491547,128.999771 
M69.688828,128.010925 
	C61.425343,129.347046 53.161858,130.683182 44.272087,132.120560 
	C56.624832,147.619354 68.152046,162.082367 80.116257,177.093658 
	C81.623283,172.763184 82.623978,169.681305 83.763313,166.651566 
	C87.547523,156.588501 91.473022,146.577591 95.162033,136.480072 
	C97.350655,130.489395 94.672981,126.075211 88.468399,126.152596 
	C82.475319,126.227348 76.495224,127.342957 69.688828,128.010925 
M122.672081,90.102196 
	C126.705269,91.762932 130.462097,91.525368 134.187683,88.996674 
	C145.037323,81.632599 155.978165,74.402885 167.735458,66.551399 
	C150.486816,58.097965 133.643692,49.843262 115.848099,41.121765 
	C116.740372,45.526493 117.712402,48.610004 117.938148,51.747215 
	C118.754135,63.087296 119.260750,74.449554 120.059647,85.791077 
	C120.150330,87.078461 121.351662,88.287605 122.672081,90.102196 
M180.935181,109.704338 
	C177.901764,97.237389 174.868347,84.770439 171.668091,71.617798 
	C160.940979,81.547691 150.705032,90.830544 140.705078,100.361000 
	C135.717224,105.114677 136.939529,111.503326 144.257538,113.901047 
	C155.973709,117.739815 167.879715,121.000923 179.719284,124.458954 
	C180.981766,124.827705 182.336121,124.881943 184.390579,125.195404 
	C183.130981,119.702515 182.081100,115.124092 180.935181,109.704338 
M78.002556,78.496010 
	C82.174355,81.326988 86.551308,83.904579 90.455658,87.065865 
	C93.824577,89.793617 97.528374,90.668510 101.417892,89.830032 
	C103.149353,89.456772 105.652443,87.398941 105.825882,85.879738 
	C107.487671,71.323059 108.725945,56.718029 110.148849,41.448498 
	C93.230850,49.690495 76.603592,57.790844 59.454540,66.145401 
	C66.067390,70.551704 71.726112,74.322250 78.002556,78.496010 
M52.010834,89.570847 
	C49.281281,100.778908 46.551727,111.986969 43.558216,124.278885 
	C46.589314,123.790329 48.679020,123.688042 50.622417,123.101227 
	C61.243004,119.894264 71.817307,116.534431 82.428108,113.294563 
	C90.035873,110.971626 91.690239,105.318581 86.049576,99.655731 
	C80.204010,93.787155 74.053040,88.220490 67.980759,82.580887 
	C64.263550,79.128548 60.443058,75.787422 56.559132,72.297668 
	C54.973660,78.073944 53.511219,83.401993 52.010834,89.570847 
z"/>
<path fill="#78BE20" opacity="1.000000" stroke="none" 
	d="
M160.942474,129.001389 
	C166.688202,129.903488 172.044891,130.543427 177.259399,131.782013 
	C181.923965,132.889969 181.949890,133.868866 178.977341,137.515839 
	C168.418686,150.470154 157.960953,163.506714 147.119431,176.940308 
	C145.006348,171.754837 142.891800,166.805466 140.965942,161.783737 
	C138.065552,154.220871 134.961136,146.708496 132.631516,138.967590 
	C131.646591,135.694839 130.974564,130.426895 132.737900,128.704132 
	C134.996429,126.497574 139.891174,126.241516 143.585846,126.426476 
	C149.249817,126.710014 154.859070,128.086914 160.942474,129.001389 
z"/>
<path fill="#78BE1F" opacity="1.000000" stroke="none" 
	d="
M70.099121,128.006134 
	C76.495224,127.342957 82.475319,126.227348 88.468399,126.152596 
	C94.672981,126.075211 97.350655,130.489395 95.162033,136.480072 
	C91.473022,146.577591 87.547523,156.588501 83.763313,166.651566 
	C82.623978,169.681305 81.623283,172.763184 80.116257,177.093658 
	C68.152046,162.082367 56.624832,147.619354 44.272087,132.120560 
	C53.161858,130.683182 61.425343,129.347046 70.099121,128.006134 
z"/>
<path fill="#1AC1D5" opacity="1.000000" stroke="none" 
	d="
M122.355042,89.817612 
	C121.351662,88.287605 120.150330,87.078461 120.059647,85.791077 
	C119.260750,74.449554 118.754135,63.087296 117.938148,51.747215 
	C117.712402,48.610004 116.740372,45.526493 115.848099,41.121765 
	C133.643692,49.843262 150.486816,58.097965 167.735458,66.551399 
	C155.978165,74.402885 145.037323,81.632599 134.187683,88.996674 
	C130.462097,91.525368 126.705269,91.762932 122.355042,89.817612 
z"/>
<path fill="#1C428A" opacity="1.000000" stroke="none" 
	d="
M180.983185,110.125000 
	C182.081100,115.124092 183.130981,119.702515 184.390579,125.195404 
	C182.336121,124.881943 180.981766,124.827705 179.719284,124.458954 
	C167.879715,121.000923 155.973709,117.739815 144.257538,113.901047 
	C136.939529,111.503326 135.717224,105.114677 140.705078,100.361000 
	C150.705032,90.830544 160.940979,81.547691 171.668091,71.617798 
	C174.868347,84.770439 177.901764,97.237389 180.983185,110.125000 
z"/>
<path fill="#1AC1D5" opacity="1.000000" stroke="none" 
	d="
M77.693695,78.294403 
	C71.726112,74.322250 66.067390,70.551704 59.454540,66.145401 
	C76.603592,57.790844 93.230850,49.690495 110.148849,41.448498 
	C108.725945,56.718029 107.487671,71.323059 105.825882,85.879738 
	C105.652443,87.398941 103.149353,89.456772 101.417892,89.830032 
	C97.528374,90.668510 93.824577,89.793617 90.455658,87.065865 
	C86.551308,83.904579 82.174355,81.326988 77.693695,78.294403 
z"/>
<path fill="#1C428A" opacity="1.000000" stroke="none" 
	d="
M52.029808,89.150436 
	C53.511219,83.401993 54.973660,78.073944 56.559132,72.297668 
	C60.443058,75.787422 64.263550,79.128548 67.980759,82.580887 
	C74.053040,88.220490 80.204010,93.787155 86.049576,99.655731 
	C91.690239,105.318581 90.035873,110.971626 82.428108,113.294563 
	C71.817307,116.534431 61.243004,119.894264 50.622417,123.101227 
	C48.679020,123.688042 46.589314,123.790329 43.558216,124.278885 
	C46.551727,111.986969 49.281281,100.778908 52.029808,89.150436 
z"/>
<path fill="#1BC1D5" opacity="1.000000" stroke="none" 
	d="
M86.837158,176.989975 
	C91.158699,169.221848 95.458504,161.441498 99.812141,153.691406 
	C101.635384,150.445770 103.638245,147.300583 105.444496,144.045944 
	C109.102295,137.455078 117.050758,137.019394 120.827873,143.536865 
	C127.064751,154.298691 132.948273,165.265289 138.663055,176.748840 
	C137.878281,177.515808 137.411591,177.821289 136.943985,177.822723 
	C121.356766,177.870377 105.769417,177.907959 90.182259,177.871964 
	C89.066551,177.869400 87.952164,177.297272 86.837158,176.989975 
z"/>
<path fill="#02BCD2" opacity="1.000000" stroke="none" 
	d="
M86.518585,177.187378 
	C87.952164,177.297272 89.066551,177.869400 90.182259,177.871964 
	C105.769417,177.907959 121.356766,177.870377 136.943985,177.822723 
	C137.411591,177.821289 137.878281,177.515808 138.686707,177.111618 
	C139.727844,177.615311 140.427658,178.359467 141.092560,179.066483 
	C128.190384,179.066483 115.603661,178.994675 103.018509,179.104416 
	C98.450935,179.144257 93.886719,179.611008 89.321831,179.896790 
	C87.499962,180.010849 85.370850,180.547516 86.518585,177.187378 
z"/>
</svg>