<svg height='300px' width='300px'  fill="#ffffff" xmlns="http://www.w3.org/2000/svg" viewBox="0 0 64 64" x="0px" y="0px"><title>a</title><g data-name="14 Malware Danger"><path d="M45,36V24a3,3,0,0,0-3-3H22a3,3,0,0,0-3,3V36a3,3,0,0,0,3,3h7v2H28a1,1,0,0,0,0,2h8a1,1,0,0,0,0-2H35V39h7A3,3,0,0,0,45,36ZM33,41H31V39h2Zm10-5a1,1,0,0,1-1,1H22a1,1,0,0,1-1-1V24a1,1,0,0,1,1-1H42a1,1,0,0,1,1,1Z"></path><path d="M28,7v5c0,3.678,3.533,4.9,3.684,4.949a1,1,0,0,0,.632,0C32.467,16.9,36,15.678,36,12V7a3,3,0,0,0,3-3V1a1,1,0,0,0-1-1H34a1,1,0,0,0-1,1V2H31V1a1,1,0,0,0-1-1H26a1,1,0,0,0-1,1V4A3,3,0,0,0,28,7Zm4,7.916A3.572,3.572,0,0,1,30.167,13h3.666A3.572,3.572,0,0,1,32,14.916ZM34,11H30V10h1a1,1,0,0,0,0-2H30V7h4Zm1-9h2V4a1,1,0,0,1-1,1H35V2ZM33,4V5H31V4ZM27,2h2V5H28a1,1,0,0,1-1-1Z"></path><path d="M36,57V52c0-3.679-3.533-4.9-3.684-4.948a.991.991,0,0,0-.632,0C31.533,47.1,28,48.321,28,52v5a3,3,0,0,0-3,3v3a1,1,0,0,0,1,1h4a1,1,0,0,0,1-1V62h2v1a1,1,0,0,0,1,1h4a1,1,0,0,0,1-1V60A3,3,0,0,0,36,57Zm-4-7.916A3.572,3.572,0,0,1,33.833,51H30.167A3.568,3.568,0,0,1,32,49.084ZM30,53h4v1H33a1,1,0,0,0,0,2h1v1H30Zm-1,9H27V60a1,1,0,0,1,1-1h1v3Zm2-2V59h2v1Zm6,2H35V59h1a1,1,0,0,1,1,1Z"></path><path d="M16,32a1,1,0,0,0-1-1H10a1,1,0,0,0,0,2h5A1,1,0,0,0,16,32Z"></path><path d="M54,31H49a1,1,0,0,0,0,2h5a1,1,0,0,0,0-2Z"></path><path d="M32,27a1,1,0,0,0-1,1v1a1,1,0,0,0,2,0V28A1,1,0,0,0,32,27Z"></path><path d="M31.29,31.29a1,1,0,1,0,1.42,0A1.047,1.047,0,0,0,31.29,31.29Z"></path><path d="M23.29,33.29a1.014,1.014,0,0,0,0,1.42A1.029,1.029,0,0,0,24,35a1,1,0,1,0-.71-1.71Z"></path><path d="M32,24a6,6,0,1,0,6,6A6.006,6.006,0,0,0,32,24Zm0,10a4,4,0,1,1,4-4A4,4,0,0,1,32,34Z"></path><path d="M20,46H16a1,1,0,0,1-1-1V41a1,1,0,0,0-2,0v4a3,3,0,0,0,3,3h4a1,1,0,0,0,0-2Z"></path><path d="M44,17h4a1,1,0,0,1,1,1v4a1,1,0,0,0,2,0V18a3,3,0,0,0-3-3H44a1,1,0,0,0,0,2Z"></path><path d="M50,40a1,1,0,0,0-1,1v4a1,1,0,0,1-1,1H45a1,1,0,0,0,0,2h3a3,3,0,0,0,3-3V41A1,1,0,0,0,50,40Z"></path><path d="M14,23a1,1,0,0,0,1-1V18a1,1,0,0,1,1-1h4a1,1,0,0,0,0-2H16a3,3,0,0,0-3,3v4A1,1,0,0,0,14,23Z"></path></g></svg>