<svg height='300px' width='300px'  fill="#ffffff" xmlns="http://www.w3.org/2000/svg" xmlns:xlink="http://www.w3.org/1999/xlink" version="1.1" x="0px" y="0px" viewBox="0 0 49 49" enable-background="new 0 0 49 49" xml:space="preserve"><path d="M37.274,30.226H11.725c-1.17,0-1.908,0.933-1.639,2.072l2.48,10.493c0.27,1.14,1.448,2.071,2.619,2.071h18.629  c1.171,0,2.351-0.932,2.619-2.071l2.48-10.493C39.182,31.159,38.446,30.226,37.274,30.226z M24.5,39.673  c-2.059,0-3.726-0.953-3.726-2.129s1.667-2.129,3.726-2.129s3.727,0.953,3.727,2.129S26.558,39.673,24.5,39.673z"></path><path d="M34.613,46.017H14.387c-0.686,0-1.241,0.556-1.241,1.241c0,0.687,0.556,1.241,1.241,1.241h20.226  c0.685,0,1.242-0.555,1.242-1.241C35.855,46.573,35.298,46.017,34.613,46.017z"></path><path d="M11.049,43.15l-2.232-9.443c-1.29,1.713-2.304,4.117-2.668,7.649c0,0-0.99,7.144,4.643,7.144c0.377,0,0.743,0,1.098,0  c-0.188-0.375-0.304-0.793-0.304-1.241c0-0.761,0.308-1.45,0.801-1.956C11.739,44.731,11.247,43.986,11.049,43.15z"></path><path d="M42.851,41.356c-0.365-3.534-1.379-5.937-2.669-7.649L37.95,43.15c-0.197,0.836-0.69,1.581-1.338,2.152  c0.495,0.506,0.801,1.195,0.801,1.956c0,0.448-0.116,0.866-0.303,1.241c0.356,0,0.721,0,1.098,0  C43.841,48.5,42.851,41.356,42.851,41.356z"></path><path d="M33.046,17.447c0-1.303-0.217-2.543-0.602-3.684c-0.928,0.925-3.316,2.709-7.945,2.709c-4.627,0-7.017-1.783-7.946-2.709  c-0.384,1.143-0.601,2.381-0.601,3.684c0,3.538,1.561,6.645,3.916,8.434c-0.785,1.083-1.792,2.15-2.954,2.787h15.166  c-1.159-0.637-2.168-1.704-2.953-2.787C31.485,24.091,33.046,20.985,33.046,17.447z"></path><path d="M32.16,12.707v-3.18l-6.131,2.365c-0.544,0.209-1.132,0.254-1.529,0.254c-0.398,0-0.986-0.045-1.53-0.254l-6.131-2.365v3.18  c0,0,1.959,2.85,7.661,2.85C30.2,15.556,32.16,12.707,32.16,12.707z"></path><path d="M10.895,6.371l12.46,4.805c0.63,0.242,1.66,0.242,2.29,0l9.464-3.628v2.897c-0.371,0.184-0.779,0.579-0.803,1.446  c-0.044,1.603,0.133,2.583-0.712,3.34c0,0,0.333,0.401,1.058,0.312l0.458-1.514c0,0,0.165,0.506,0.221,1.527  c0,0,1.114,0.031,1.382-0.369c0,0,0.753-3.6-0.401-4.633V7.083l1.795-0.713c0.63-0.242,0.63-0.641,0-0.883l-12.46-4.805  c-0.63-0.244-1.66-0.244-2.29,0l-12.46,4.805C10.265,5.73,10.265,6.128,10.895,6.371z"></path></svg>